# xmcd
#
# Track frame offsets:
#  150
#  14821
#  27084
#  44995
#  66393
#  79751
#  105199
#  116555
#  142101
#  163799
#  177195
#  193598
#
# Disc length: 2847 seconds
#
# Revision: 0
# Processed by: cddbd v1.5.1PL2 Copyright (c) Steve Scherf et al.
# Submitted via: Collectorz.com Music Collector 6.9
#
DISCID=aa0b1d0c
DTITLE=John Mayall - Empty rooms
DYEAR=1970
DGENRE=Blues-Rock - British Blues
TTITLE0=Don't waste my time
TTITLE1=Plan your revolution
TTITLE2=Don't pick a flower
TTITLE3=Something new
TTITLE4=People cling together
TTITLE5=Waiting for the right time
TTITLE6=Thinking of my woman
TTITLE7=Counting the days
TTITLE8=When I go
TTITLE9=Many miles apart
TTITLE10=To a princess
TTITLE11=Lying in my bed
EXTD=
EXTT0=
EXTT1=
EXTT2=
EXTT3=
EXTT4=
EXTT5=
EXTT6=
EXTT7=
EXTT8=
EXTT9=
EXTT10=
EXTT11=
PLAYORDER=
